<svg width="2160" height="1080" viewBox="0 0 2160 1080" fill="none" xmlns="http://www.w3.org/2000/svg">
<g clip-path="url(#clip0_1202_62)">
<path d="M2160 0H0V1080H2160V0Z" fill="#111111"/>
<path opacity="0.5" fill-rule="evenodd" clip-rule="evenodd" d="M550.054 998.609C562.487 988.542 579.355 985.347 594.355 990.906V990.906C838.662 1081.44 1110.1 956.782 1200.64 712.475C1291.17 468.169 1166.51 196.728 922.205 106.195C677.899 15.6616 406.458 140.319 315.925 384.625C306.061 411.245 298.751 438.186 293.872 465.18C290.116 485.966 275.503 503.209 256.086 511.523C186.219 541.44 128.288 598.863 99.7934 675.755C44.679 824.483 120.567 989.729 269.295 1044.84C367.93 1081.4 473.831 1060.33 550.054 998.609Z" fill="url(#paint0_linear_1202_62)" fill-opacity="0.15"/>
<path opacity="0.5" fill-rule="evenodd" clip-rule="evenodd" d="M1930.07 257.704C1928 257.583 1926.04 256.693 1924.6 255.198V255.198C1837.92 165.25 1694.74 162.598 1604.79 249.276C1514.84 335.953 1512.19 479.136 1598.87 569.084C1673.22 646.238 1789.14 659.164 1877.38 606.578C1889.13 599.573 1902.77 596.291 1916.45 596.591C1960.04 597.549 2003.99 581.801 2037.87 549.155C2105.32 484.157 2107.31 376.785 2042.31 309.334C2011.5 277.358 1971.16 260.094 1930.07 257.704Z" fill="url(#paint1_linear_1202_62)" fill-opacity="0.15"/>
</g>
<defs>
<linearGradient id="paint0_linear_1202_62" x1="682.977" y1="280.763" x2="851.725" y2="893.845" gradientUnits="userSpaceOnUse">
<stop stop-color="white"/>
<stop offset="1" stop-color="white" stop-opacity="0"/>
</linearGradient>
<linearGradient id="paint1_linear_1202_62" x1="1843.99" y1="635.267" x2="1966.63" y2="254.126" gradientUnits="userSpaceOnUse">
<stop stop-color="white" stop-opacity="0"/>
<stop offset="1" stop-color="white"/>
</linearGradient>
<clipPath id="clip0_1202_62">
<rect width="2160" height="1080" fill="white"/>
</clipPath>
</defs>
</svg>
