<svg width="1920" height="1711" viewBox="0 0 1920 1711" fill="none" xmlns="http://www.w3.org/2000/svg">
<g clip-path="url(#clip0_860_67)">
<rect width="1920" height="1711" fill="#F3F3F3"/>
<path opacity="0.5" fill-rule="evenodd" clip-rule="evenodd" d="M1524 639C1355.55 639 1219 502.447 1219 334C1219 304.082 1223.31 275.17 1231.34 247.851C1256.01 298.837 1308.24 334 1368.68 334C1452.91 334 1521.18 265.723 1521.18 181.5C1521.18 120.065 1484.86 67.1155 1432.51 42.9592C1461.39 33.8895 1492.13 29 1524 29C1692.45 29 1829 165.553 1829 334C1829 502.447 1692.45 639 1524 639Z" fill="url(#paint0_linear_860_67)"/>
<path opacity="0.5" fill-rule="evenodd" clip-rule="evenodd" d="M1007 1862C838.553 1862 702 1725.45 702 1557C702 1527.08 706.308 1498.17 714.336 1470.85C739.012 1521.84 791.242 1557 851.684 1557C935.908 1557 1004.18 1488.72 1004.18 1404.5C1004.18 1343.07 967.857 1290.12 915.512 1265.96C944.393 1256.89 975.126 1252 1007 1252C1175.45 1252 1312 1388.55 1312 1557C1312 1725.45 1175.45 1862 1007 1862Z" fill="url(#paint1_linear_860_67)"/>
<path opacity="0.5" fill-rule="evenodd" clip-rule="evenodd" d="M256 1314C171.5 1314 103 1245.5 103 1161C103 1145.99 105.161 1131.49 109.188 1117.78C121.567 1143.36 147.767 1161 178.088 1161C220.337 1161 254.588 1126.75 254.588 1084.5C254.588 1053.68 236.364 1027.12 210.106 1015C224.594 1010.45 240.011 1008 256 1008C340.5 1008 409 1076.5 409 1161C409 1245.5 340.5 1314 256 1314Z" fill="url(#paint2_linear_860_67)"/>
<path opacity="0.5" fill-rule="evenodd" clip-rule="evenodd" d="M1749 1734C1833.5 1734 1902 1665.5 1902 1581C1902 1565.99 1899.84 1551.49 1895.81 1537.78C1883.43 1563.36 1857.23 1581 1826.91 1581C1784.66 1581 1750.41 1546.75 1750.41 1504.5C1750.41 1473.68 1768.64 1447.12 1794.89 1435C1780.41 1430.45 1764.99 1428 1749 1428C1664.5 1428 1596 1496.5 1596 1581C1596 1665.5 1664.5 1734 1749 1734Z" fill="url(#paint3_linear_860_67)"/>
<path opacity="0.5" fill-rule="evenodd" clip-rule="evenodd" d="M880 1062C1048.45 1062 1185 925.447 1185 757C1185 727.082 1180.69 698.17 1172.66 670.851C1147.99 721.837 1095.76 757 1035.32 757C951.092 757 882.816 688.723 882.816 604.5C882.816 543.065 919.143 490.115 971.488 465.959C942.607 456.889 911.874 452 880 452C711.553 452 575 588.553 575 757C575 925.447 711.553 1062 880 1062Z" fill="url(#paint4_linear_860_67)"/>
<path opacity="0.5" fill-rule="evenodd" clip-rule="evenodd" d="M256 640C171.5 640 103 571.5 103 487C103 471.992 105.161 457.489 109.188 443.784C121.567 469.361 147.767 487 178.088 487C220.337 487 254.588 452.75 254.588 410.5C254.588 379.682 236.364 353.12 210.106 341.003C224.594 336.453 240.011 334 256 334C340.5 334 409 402.5 409 487C409 571.5 340.5 640 256 640Z" fill="url(#paint5_linear_860_67)"/>
<path opacity="0.5" fill-rule="evenodd" clip-rule="evenodd" d="M663 90C747.5 90 816 21.4996 816 -63C816 -78.008 813.839 -92.5113 809.812 -106.216C797.433 -80.6393 771.233 -63 740.912 -63C698.663 -63 664.412 -97.2502 664.412 -139.5C664.412 -170.318 682.636 -196.88 708.894 -208.997C694.406 -213.547 678.989 -216 663 -216C578.5 -216 510 -147.5 510 -63C510 21.4996 578.5 90 663 90Z" fill="url(#paint6_linear_860_67)"/>
<path opacity="0.5" fill-rule="evenodd" clip-rule="evenodd" d="M1397 1063C1312.5 1063 1244 994.5 1244 910C1244 894.992 1246.16 880.489 1250.19 866.784C1262.57 892.361 1288.77 910 1319.09 910C1361.34 910 1395.59 875.75 1395.59 833.5C1395.59 802.682 1377.36 776.12 1351.11 764.003C1365.59 759.453 1381.01 757 1397 757C1481.5 757 1550 825.5 1550 910C1550 994.5 1481.5 1063 1397 1063Z" fill="url(#paint7_linear_860_67)"/>
<path opacity="0.5" fill-rule="evenodd" clip-rule="evenodd" d="M103 1887C18.5004 1887 -50 1818.5 -50 1734C-50 1718.99 -47.8391 1704.49 -43.8115 1690.78C-31.4331 1716.36 -5.2327 1734 25.0876 1734C67.3374 1734 101.588 1699.75 101.588 1657.5C101.588 1626.68 83.3644 1600.12 57.1059 1588C71.5939 1583.45 87.0105 1581 103 1581C187.5 1581 256 1649.5 256 1734C256 1818.5 187.5 1887 103 1887Z" fill="url(#paint8_linear_860_67)"/>
</g>
<defs>
<linearGradient id="paint0_linear_860_67" x1="1219" y1="29" x2="1829" y2="639" gradientUnits="userSpaceOnUse">
<stop stop-color="#C5C5C5"/>
<stop offset="1" stop-color="white" stop-opacity="0"/>
</linearGradient>
<linearGradient id="paint1_linear_860_67" x1="702" y1="1252" x2="1312" y2="1862" gradientUnits="userSpaceOnUse">
<stop stop-color="#C5C5C5"/>
<stop offset="1" stop-color="white" stop-opacity="0"/>
</linearGradient>
<linearGradient id="paint2_linear_860_67" x1="103" y1="1008" x2="409" y2="1314" gradientUnits="userSpaceOnUse">
<stop stop-color="#C5C5C5"/>
<stop offset="1" stop-color="white" stop-opacity="0"/>
</linearGradient>
<linearGradient id="paint3_linear_860_67" x1="1590" y1="1428" x2="1902" y2="1734" gradientUnits="userSpaceOnUse">
<stop stop-color="#383838"/>
<stop offset="0.0001" stop-color="#C5C5C5"/>
<stop offset="1" stop-color="white" stop-opacity="0"/>
</linearGradient>
<linearGradient id="paint4_linear_860_67" x1="575" y1="452" x2="1185" y2="1062" gradientUnits="userSpaceOnUse">
<stop stop-color="#C5C5C5"/>
<stop offset="1" stop-color="white" stop-opacity="0"/>
</linearGradient>
<linearGradient id="paint5_linear_860_67" x1="103" y1="334" x2="409" y2="640" gradientUnits="userSpaceOnUse">
<stop stop-color="#C5C5C5"/>
<stop offset="1" stop-color="white" stop-opacity="0"/>
</linearGradient>
<linearGradient id="paint6_linear_860_67" x1="504" y1="-216" x2="816" y2="90" gradientUnits="userSpaceOnUse">
<stop stop-color="#C5C5C5"/>
<stop offset="1" stop-color="white" stop-opacity="0"/>
</linearGradient>
<linearGradient id="paint7_linear_860_67" x1="1244" y1="757" x2="1550" y2="1063" gradientUnits="userSpaceOnUse">
<stop stop-color="#383838"/>
<stop offset="0.0001" stop-color="#C5C5C5"/>
<stop offset="1" stop-color="white" stop-opacity="0"/>
</linearGradient>
<linearGradient id="paint8_linear_860_67" x1="-50" y1="1581" x2="256" y2="1887" gradientUnits="userSpaceOnUse">
<stop stop-color="#C5C5C5"/>
<stop offset="1" stop-color="white" stop-opacity="0"/>
</linearGradient>
<clipPath id="clip0_860_67">
<rect width="1920" height="1711" fill="white"/>
</clipPath>
</defs>
</svg>
