<svg width="1440" height="1711" viewBox="0 0 1440 1711" fill="none" xmlns="http://www.w3.org/2000/svg">
<g clip-path="url(#clip0_759_75)">
<path opacity="0.5" fill-rule="evenodd" clip-rule="evenodd" d="M924.746 660.756C942.469 651.808 963.388 649.957 981.828 657.315C984.307 658.304 986.805 659.266 989.321 660.198C1153.84 721.164 1336.63 637.219 1397.59 472.702C1458.56 308.185 1374.61 125.395 1210.1 64.4298C1045.58 3.46431 862.79 87.4093 801.825 251.926C799.632 257.844 797.627 263.785 795.806 269.744C790.003 288.732 775.475 303.896 757.405 312.125C712.17 332.722 674.837 370.644 656.201 420.932C619.087 521.086 670.191 632.364 770.345 669.478C822.85 688.935 878.414 684.147 924.746 660.756Z" fill="url(#paint0_linear_759_75)" fill-opacity="0.15"/>
<path opacity="0.5" fill-rule="evenodd" clip-rule="evenodd" d="M356.746 1440.76C374.469 1431.81 395.388 1429.96 413.828 1437.32C416.307 1438.3 418.805 1439.27 421.321 1440.2C585.838 1501.16 768.628 1417.22 829.593 1252.7C890.559 1088.18 806.614 905.395 642.097 844.43C477.58 783.464 294.79 867.409 233.825 1031.93C231.632 1037.84 229.627 1043.79 227.806 1049.74C222.003 1068.73 207.475 1083.9 189.405 1092.12C144.17 1112.72 106.837 1150.64 88.2015 1200.93C51.0872 1301.09 102.191 1412.36 202.345 1449.48C254.85 1468.94 310.414 1464.15 356.746 1440.76Z" fill="url(#paint1_linear_759_75)" fill-opacity="0.15"/>
<path opacity="0.5" fill-rule="evenodd" clip-rule="evenodd" d="M406.716 78.4145C405.321 78.3334 404.005 77.7337 403.035 76.7273C344.666 16.1557 248.246 14.3701 187.674 72.739C127.103 131.108 125.317 227.528 183.686 288.1C232.064 338.303 306.582 348.123 365.163 316.78C377.229 310.324 390.848 307.095 404.521 306.564C431.546 305.517 458.303 294.922 479.31 274.679C524.732 230.909 526.071 158.605 482.301 113.183C461.551 91.6497 434.388 80.0239 406.716 78.4145Z" fill="url(#paint2_linear_759_75)" fill-opacity="0.15"/>
<path opacity="0.5" fill-rule="evenodd" clip-rule="evenodd" d="M1222.72 1428.41C1221.32 1428.33 1220 1427.73 1219.04 1426.73V1426.73C1160.67 1366.16 1064.25 1364.37 1003.67 1422.74C943.103 1481.11 941.317 1577.53 999.686 1638.1C1048.06 1688.3 1122.58 1698.12 1181.16 1666.78C1193.23 1660.32 1206.85 1657.09 1220.52 1656.56C1247.55 1655.52 1274.3 1644.92 1295.31 1624.68C1340.73 1580.91 1342.07 1508.6 1298.3 1463.18C1277.55 1441.65 1250.39 1430.02 1222.72 1428.41Z" fill="url(#paint3_linear_759_75)" fill-opacity="0.15"/>
</g>
<defs>
<linearGradient id="paint0_linear_759_75" x1="1048.92" y1="154.943" x2="1162.56" y2="567.795" gradientUnits="userSpaceOnUse">
<stop stop-color="white"/>
<stop offset="1" stop-color="white" stop-opacity="0"/>
</linearGradient>
<linearGradient id="paint1_linear_759_75" x1="480.92" y1="934.943" x2="594.555" y2="1347.8" gradientUnits="userSpaceOnUse">
<stop stop-color="white"/>
<stop offset="1" stop-color="white" stop-opacity="0"/>
</linearGradient>
<linearGradient id="paint2_linear_759_75" x1="348.752" y1="332.667" x2="431.339" y2="76.0055" gradientUnits="userSpaceOnUse">
<stop stop-color="white" stop-opacity="0"/>
<stop offset="1" stop-color="white"/>
</linearGradient>
<linearGradient id="paint3_linear_759_75" x1="1164.75" y1="1682.67" x2="1247.34" y2="1426.01" gradientUnits="userSpaceOnUse">
<stop stop-color="white" stop-opacity="0"/>
<stop offset="1" stop-color="white"/>
</linearGradient>
<clipPath id="clip0_759_75">
<rect width="1440" height="1711" fill="white"/>
</clipPath>
</defs>
</svg>
