<svg width="36" height="25" viewBox="0 0 36 25" fill="none" xmlns="http://www.w3.org/2000/svg">
<path d="M35.1916 5.39433C35.1916 5.39433 34.8445 2.94363 33.7753 1.86754C32.4215 0.451264 30.9081 0.444321 30.2138 0.361011C25.243 -1.98627e-07 17.7798 0 17.7798 0H17.7659C17.7659 0 10.3027 -1.98627e-07 5.33185 0.361011C4.6376 0.444321 3.12413 0.451264 1.77034 1.86754C0.701194 2.94363 0.361011 5.39433 0.361011 5.39433C0.361011 5.39433 0 8.27548 0 11.1497V13.8434C0 16.7176 0.354068 19.5987 0.354068 19.5987C0.354068 19.5987 0.701194 22.0494 1.7634 23.1255C3.11719 24.5418 4.89447 24.4932 5.68592 24.6459C8.53235 24.9167 17.7728 25 17.7728 25C17.7728 25 25.243 24.9861 30.2138 24.632C30.9081 24.5487 32.4215 24.5418 33.7753 23.1255C34.8445 22.0494 35.1916 19.5987 35.1916 19.5987C35.1916 19.5987 35.5457 16.7245 35.5457 13.8434V11.1497C35.5457 8.27548 35.1916 5.39433 35.1916 5.39433ZM14.1003 17.1133V7.12302L23.7017 12.1355L14.1003 17.1133Z" fill="white"/>
</svg>
